<?xml version="1.0" encoding="utf-8"?>
<!-- Generator: Adobe Illustrator 16.0.0, SVG Export Plug-In . SVG Version: 6.00 Build 0)  -->
<!DOCTYPE svg PUBLIC "-//W3C//DTD SVG 1.1//EN" "http://www.w3.org/Graphics/SVG/1.1/DTD/svg11.dtd">
<svg version="1.1" id="Layer_1" xmlns="http://www.w3.org/2000/svg" xmlns:xlink="http://www.w3.org/1999/xlink" x="0px" y="0px"
	 width="20px" height="20px" viewBox="0 0 20 20" enable-background="new 0 0 20 20" xml:space="preserve">
<path fill="#231F20" d="M20,12V8h-2.263c-0.188-0.732-0.477-1.422-0.852-2.057l1.6-1.6l-2.828-2.829l-1.6,1.6
	C13.423,2.739,12.732,2.451,12,2.262V0H8v2.262C7.268,2.451,6.578,2.739,5.943,3.114L4.344,1.515L1.515,4.343l1.6,1.6
	C2.739,6.578,2.451,7.268,2.262,8H0v4h2.262c0.189,0.732,0.477,1.422,0.852,2.058l-1.599,1.599l2.828,2.829l1.6-1.6
	C6.577,17.261,7.268,17.549,8,17.738V20h4v-2.263c0.731-0.188,1.422-0.477,2.057-0.852l1.6,1.6l2.829-2.828l-1.6-1.6
	c0.375-0.635,0.663-1.325,0.852-2.058H20z M10,14c-2.209,0-4-1.79-4-4c0-2.209,1.791-4,4-4c2.21,0,4,1.791,4,4
	C14,12.21,12.21,14,10,14z"/>
</svg>
